# xmcd
#
# Track frame offsets: 
#        150
#        23190
#        45953
#        70785
#        100314
#        119812
#        140976
#        168450
#        193442
#        215859
#        241330
#
# Disc length: 3563 seconds
#
# Revision: 0
# Processed by: cddbd v1.5.2PL0 Copyright (c) Steve Scherf et al.
# Submitted via: ExactAudioCopy v0.99pb5
#
DISCID=af0de90b
DTITLE=Michael Mann - I've Still Got My Guitar
DYEAR=2006
DGENRE=Blues
TTITLE0=Chasing Your Shadow
TTITLE1=Where You Are
TTITLE2=My Faith's In You
TTITLE3=I Still Got My Guitar
TTITLE4=Call Me Mr. Mann
TTITLE5=Highs and Lows
TTITLE6=You're Still Gone
TTITLE7=When I'm Alone
TTITLE8=Where Has The Good Gone
TTITLE9=Worth The Ride
TTITLE10=I'm Not Staying Long
EXTD=
EXTT0=
EXTT1=
EXTT2=
EXTT3=
EXTT4=
EXTT5=
EXTT6=
EXTT7=
EXTT8=
EXTT9=
EXTT10=
PLAYORDER=
